<svg xmlns="http://www.w3.org/2000/svg" xmlns:xlink="http://www.w3.org/1999/xlink" viewBox="0 0 341.55 224.96"><defs><style>.cls-1{fill:none;}.cls-2{clip-path:url(#clip-path);}.cls-3{fill:url(#radial-gradient);}.cls-4{fill:#2e3c54;}</style><clipPath id="clip-path"><path class="cls-1" d="M199,28.12A28.12,28.12,0,1,1,170.83,0,28.12,28.12,0,0,1,199,28.12ZM134.3,63.27a28.12,28.12,0,1,0,28.12,28.12A28.12,28.12,0,0,0,134.3,63.27Zm73.06,0a28.12,28.12,0,1,0,28.12,28.12A28.12,28.12,0,0,0,207.36,63.27Z"/></clipPath><radialGradient id="radial-gradient" cx="-5051.9" cy="2765.11" r="94.39" gradientTransform="translate(-1903 -3718.13) rotate(-90) scale(0.75)" gradientUnits="userSpaceOnUse"><stop offset="0" stop-color="#ffb900"/><stop offset="0.6" stop-color="#f95d8f"/><stop offset="1" stop-color="#f95353"/></radialGradient></defs><title>Element 1</title><g id="Ebene_2" data-name="Ebene 2"><g id="Layer_1" data-name="Layer 1"><g class="cls-2"><circle class="cls-3" cx="170.83" cy="70.8" r="70.79"/></g><path class="cls-4" d="M52.52,216.39c.28,3.2,2.84,7.27,7.27,7.27h2.59a1.84,1.84,0,0,0,1.83-1.83v-57h0a1.83,1.83,0,0,0-1.82-1.73h-8a1.83,1.83,0,0,0-1.82,1.73h0v4.63c-4.92-6.07-12.69-8.58-20.47-8.58A32,32,0,0,0,32,225h0c7.79,0,16.27-3,20.47-8.58Zm-20.44-2.64a20.83,20.83,0,0,1,0-41.66,20.83,20.83,0,0,1,0,41.66Z"/><path class="cls-4" d="M183.47,216.39c.28,3.2,2.84,7.27,7.27,7.27h2.59a1.83,1.83,0,0,0,1.83-1.83v-57h0a1.83,1.83,0,0,0-1.82-1.73h-8a1.83,1.83,0,0,0-1.82,1.73h0v4.63c-4.93-6.07-12.69-8.58-20.48-8.58A32,32,0,0,0,163,225h0c7.79,0,16.27-3,20.47-8.58ZM163,213.74a20.83,20.83,0,1,1,20.38-20.83A20.61,20.61,0,0,1,163,213.74Z"/><path class="cls-4" d="M329.86,216.39c.28,3.2,2.84,7.27,7.27,7.27h2.59a1.84,1.84,0,0,0,1.83-1.83v-57h0a1.83,1.83,0,0,0-1.82-1.73h-8a1.83,1.83,0,0,0-1.82,1.73h0v4.63c-4.92-6.07-12.69-8.58-20.47-8.58a32,32,0,1,0,0,64.09h0c7.79,0,16.27-3,20.47-8.58Zm-20.44-2.64a20.83,20.83,0,1,1,20.38-20.83A20.61,20.61,0,0,1,309.41,213.74Z"/><path class="cls-4" d="M267.18,218.35v-29.5h0c0-16.63-10.49-27.84-27.22-27.84-8,0-15.29,4.58-16.84,8.58-.5-3.1-2.15-6.36-7.25-6.36h-2.6a1.83,1.83,0,0,0-1.83,1.83v51.47h0v5.53h0a1.83,1.83,0,0,0,1.82,1.73h8a1.87,1.87,0,0,0,.36,0l.15,0,.18-.06.2-.11.1-.05a1.88,1.88,0,0,0,.22-.18l0,0a1.94,1.94,0,0,0,.22-.25h0a1.81,1.81,0,0,0,.34-1h0V188.39a16.17,16.17,0,0,1,32.34,0v28.15h0s0,.05,0,.08v5.46h0a1.83,1.83,0,0,0,1.82,1.73h8a1.86,1.86,0,0,0,.36,0l.14,0,.2-.06.19-.1.11-.06a1.94,1.94,0,0,0,.21-.17l.05,0a1.93,1.93,0,0,0,.21-.24v0a1.82,1.82,0,0,0,.34-1h0v-3.72Z"/><path class="cls-4" d="M83.42,208.22a29.63,29.63,0,0,0,16.85,5.52c5.36,0,10.9-2.78,10.9-7.62,0-6.46-12.08-7.46-19.67-10s-14.13-7.91-14.13-16.55c0-13.21,11.77-18.67,22.76-18.67a34.31,34.31,0,0,1,18.8,5.58,1.86,1.86,0,0,1,.63,2.61l-4.45,6.35a1.78,1.78,0,0,1-2.63.56,22.14,22.14,0,0,0-12.36-3.89c-6.7,0-10.74,3.1-10.74,6.93,0,4.6,5.25,6,11.4,7.62,10.71,2.89,22.4,6.36,22.4,19.49,0,11.64-10.89,18.84-22.92,18.84a38.52,38.52,0,0,1-23.4-7.38,2,2,0,0,1-.41-2.62l4.42-6.32A1.76,1.76,0,0,1,83.42,208.22Z"/></g></g></svg>
